<svg width="10" height="14" fill="none" xmlns="http://www.w3.org/2000/svg"><path d="M3.813 6.188c.333.312.729.468 1.187.468.458 0 .844-.156 1.156-.468.334-.334.5-.73.5-1.188 0-.458-.166-.844-.5-1.156A1.522 1.522 0 0 0 5 3.344c-.458 0-.854.166-1.188.5A1.571 1.571 0 0 0 3.345 5c0 .458.156.854.469 1.188Zm-2.126-4.47C2.604.803 3.708.345 5 .345c1.292 0 2.385.458 3.281 1.375.917.896 1.375 1.99 1.375 3.281 0 .646-.166 1.385-.5 2.219A12.905 12.905 0 0 1 8 9.562c-.458.73-.917 1.417-1.375 2.063a23.164 23.164 0 0 1-1.125 1.5l-.5.531a26.867 26.867 0 0 0-.5-.562c-.208-.25-.583-.73-1.125-1.438a31.715 31.715 0 0 1-1.438-2.094A17.075 17.075 0 0 1 .845 7.25C.51 6.396.344 5.646.344 5c0-1.292.448-2.385 1.344-3.281Z" fill="#797979"/></svg>